<svg xmlns="http://www.w3.org/2000/svg" xmlns:xlink="http://www.w3.org/1999/xlink" width="15" height="15" class="icon" p-id="1624" t="1702136520403" version="1.1" viewBox="0 0 1024 1024"><path fill="CURRENTCOLOR" d="M0 0h192v192H0z" p-id="1625"/><path fill="CURRENTCOLOR" d="M192 192h192v192H192z" opacity=".6" p-id="1626"/><path fill="CURRENTCOLOR" d="M384 0h192v192H384z" opacity=".8" p-id="1627"/><path fill="CURRENTCOLOR" d="M576 192h192v192H576z" opacity=".4" p-id="1628"/><path fill="CURRENTCOLOR" d="M768 0h192v192h-192z" opacity=".6" p-id="1629"/><path fill="CURRENTCOLOR" d="M0 384h192v192H0z" opacity=".8" p-id="1630"/><path fill="CURRENTCOLOR" d="M192 576h192v192H192zM384 384h192v192H384z" opacity=".4" p-id="1631"/><path fill="CURRENTCOLOR" d="M576 576h192v192H576zM768 384h192v192h-192z" opacity=".2" p-id="1632"/><path fill="CURRENTCOLOR" d="M0 768h192v192H0z" opacity=".4" p-id="1633"/><path fill="CURRENTCOLOR" d="M384 768h192v192H384z" opacity=".2" p-id="1634"/><path fill="CURRENTCOLOR" d="M768 768h192v192h-192z" opacity=".1" p-id="1635"/></svg>